<svg id="Layer_1" data-name="Layer 1" xmlns="http://www.w3.org/2000/svg" viewBox="0 0 1113.87 500"><defs><style>.cls-1{fill:none;}.cls-2{fill:#fff;}</style></defs><title>white_logo</title><g id="BACKGROUND"><rect class="cls-1" x="363.87" width="750" height="500"/></g><path class="cls-2" d="M-292,134.08-267,159l45.6-55.32q-34.4-34.45-68.87-68.83a9.93,9.93,0,0,0-6.27-2.71c-20.51-.2-41-.12-61.53-.11-1.45,0-2.91.14-4.55.22V244.34c1.62-1.47,2.71-2.39,3.72-3.4,18-18.05,35.47-36.71,54.26-53.92,9.87-9,14.52-18.4,12.8-31.6C-292.77,148.65-292,141.66-292,134.08Z" transform="translate(363.67)"/><path class="cls-2" d="M-90.83,32.07a5.35,5.35,0,0,0-3.3,1.62q-45.9,46-91.71,92.14c-2.17,2.2-4,4.7-6.09,7.12l0,0-45.65,55.38,45.08,44.89,99.09-97.8v6q0,93.48.15,187a11.55,11.55,0,0,0,2.91,7.37c21.23,21.66,42.67,43.12,64.06,64.63.87.87,1.86,1.62,3.28,2.85V32C-45.87,32-68.35,32-90.83,32.07Z" transform="translate(363.67)"/><path class="cls-2" d="M-363.67,400.86l1,1.53c-.07-.76-.18-1.53-.26-2.3Z" transform="translate(363.67)"/><path class="cls-2" d="M-292.06,249.76a7.32,7.32,0,0,0-12.51-5.17q-28.06,28.21-56.06,56.49a9.59,9.59,0,0,0-2.19,6.16c-.16,30.5-.14,61-.15,91.5,0,.45,0,.9.08,1.35l68.64-67.54a7.33,7.33,0,0,0,2.19-5.22Z" transform="translate(363.67)"/></svg>